<mxfile host="app.diagrams.net" modified="2024-04-22T08:53:41.686Z" agent="Mozilla/5.0 (Windows NT 10.0; Win64; x64) AppleWebKit/537.36 (KHTML, like Gecko) Chrome/124.0.0.0 Safari/537.36" etag="Yh4VPoha3d2bShZKsb4P" version="23.1.5" type="github">
  <diagram name="Page-1" id="74e2e168-ea6b-b213-b513-2b3c1d86103e">
    <mxGraphModel dx="1313" dy="653" grid="1" gridSize="10" guides="1" tooltips="1" connect="1" arrows="1" fold="1" page="1" pageScale="1" pageWidth="1100" pageHeight="850" background="none" math="0" shadow="0">
      <root>
        <mxCell id="0" />
        <mxCell id="1" parent="0" />
        <mxCell id="4IaKtnTtu1cA-8xoIhlD-1" value="&lt;b&gt;START&lt;/b&gt;" style="ellipse;whiteSpace=wrap;html=1;" vertex="1" parent="1">
          <mxGeometry x="130" y="380" width="120" height="80" as="geometry" />
        </mxCell>
        <mxCell id="4IaKtnTtu1cA-8xoIhlD-2" value="&lt;span style=&quot;margin: 0px; padding: 0px; border: 0px; font-weight: 400; font-style: normal; font-family: &amp;quot;gg sans&amp;quot;, &amp;quot;Noto Sans&amp;quot;, &amp;quot;Helvetica Neue&amp;quot;, Helvetica, Arial, sans-serif; font-size: 16px; vertical-align: baseline; outline: 0px; font-variant-ligatures: normal; font-variant-caps: normal; letter-spacing: normal; orphans: 2; text-align: left; text-indent: 0px; text-transform: none; widows: 2; word-spacing: 0px; -webkit-text-stroke-width: 0px; background-color: rgba(2, 2, 2, 0.06); text-decoration-thickness: initial; text-decoration-style: initial; text-decoration-color: initial;&quot;&gt;/&lt;/span&gt;&lt;span style=&quot;margin: 0px; padding: 0px; border: 0px; font-weight: 400; font-style: normal; font-family: &amp;quot;gg sans&amp;quot;, &amp;quot;Noto Sans&amp;quot;, &amp;quot;Helvetica Neue&amp;quot;, Helvetica, Arial, sans-serif; font-size: 16px; vertical-align: baseline; outline: 0px; font-variant-ligatures: normal; font-variant-caps: normal; letter-spacing: normal; orphans: 2; text-align: left; text-indent: 0px; text-transform: none; widows: 2; word-spacing: 0px; -webkit-text-stroke-width: 0px; background-color: rgba(2, 2, 2, 0.06); text-decoration-thickness: initial; text-decoration-style: initial; text-decoration-color: initial;&quot;&gt;/createmi un sistema per gestire una biblioteca&lt;/span&gt;&lt;span style=&quot;margin: 0px; padding: 0px; border: 0px; font-weight: 400; font-style: normal; font-family: &amp;quot;gg sans&amp;quot;, &amp;quot;Noto Sans&amp;quot;, &amp;quot;Helvetica Neue&amp;quot;, Helvetica, Arial, sans-serif; font-size: 16px; vertical-align: baseline; outline: 0px; font-variant-ligatures: normal; font-variant-caps: normal; letter-spacing: normal; orphans: 2; text-align: left; text-indent: 0px; text-transform: none; widows: 2; word-spacing: 0px; -webkit-text-stroke-width: 0px; background-color: rgba(2, 2, 2, 0.06); text-decoration-thickness: initial; text-decoration-style: initial; text-decoration-color: initial;&quot;&gt;. Ogni libro &lt;br&gt;&lt;/span&gt;&lt;span style=&quot;margin: 0px; padding: 0px; border: 0px; font-weight: 400; font-style: normal; font-family: &amp;quot;gg sans&amp;quot;, &amp;quot;Noto Sans&amp;quot;, &amp;quot;Helvetica Neue&amp;quot;, Helvetica, Arial, sans-serif; font-size: 16px; vertical-align: baseline; outline: 0px; font-variant-ligatures: normal; font-variant-caps: normal; letter-spacing: normal; orphans: 2; text-align: left; text-indent: 0px; text-transform: none; widows: 2; word-spacing: 0px; -webkit-text-stroke-width: 0px; background-color: rgba(2, 2, 2, 0.06); text-decoration-thickness: initial; text-decoration-style: initial; text-decoration-color: initial;&quot;&gt;/&lt;/span&gt;&lt;span style=&quot;margin: 0px; padding: 0px; border: 0px; font-weight: 400; font-style: normal; font-family: &amp;quot;gg sans&amp;quot;, &amp;quot;Noto Sans&amp;quot;, &amp;quot;Helvetica Neue&amp;quot;, Helvetica, Arial, sans-serif; font-size: 16px; vertical-align: baseline; outline: 0px; font-variant-ligatures: normal; font-variant-caps: normal; letter-spacing: normal; orphans: 2; text-align: left; text-indent: 0px; text-transform: none; widows: 2; word-spacing: 0px; -webkit-text-stroke-width: 0px; background-color: rgba(2, 2, 2, 0.06); text-decoration-thickness: initial; text-decoration-style: initial; text-decoration-color: initial;&quot;&gt;/Ã¨ identificato da un ID univoco e ha un titolo e un autore&lt;br&gt;&lt;/span&gt;&lt;span style=&quot;margin: 0px; padding: 0px; border: 0px; font-weight: 400; font-style: normal; font-family: &amp;quot;gg sans&amp;quot;, &amp;quot;Noto Sans&amp;quot;, &amp;quot;Helvetica Neue&amp;quot;, Helvetica, Arial, sans-serif; font-size: 16px; vertical-align: baseline; outline: 0px; font-variant-ligatures: normal; font-variant-caps: normal; letter-spacing: normal; orphans: 2; text-align: left; text-indent: 0px; text-transform: none; widows: 2; word-spacing: 0px; -webkit-text-stroke-width: 0px; background-color: rgba(2, 2, 2, 0.06); text-decoration-thickness: initial; text-decoration-style: initial; text-decoration-color: initial;&quot;&gt;/&lt;/span&gt;&lt;span style=&quot;margin: 0px; padding: 0px; border: 0px; font-weight: 400; font-style: normal; font-family: &amp;quot;gg sans&amp;quot;, &amp;quot;Noto Sans&amp;quot;, &amp;quot;Helvetica Neue&amp;quot;, Helvetica, Arial, sans-serif; font-size: 16px; vertical-align: baseline; outline: 0px; font-variant-ligatures: normal; font-variant-caps: normal; letter-spacing: normal; orphans: 2; text-align: left; text-indent: 0px; text-transform: none; widows: 2; word-spacing: 0px; -webkit-text-stroke-width: 0px; background-color: rgba(2, 2, 2, 0.06); text-decoration-thickness: initial; text-decoration-style: initial; text-decoration-color: initial;&quot;&gt;/&lt;/span&gt;&lt;span style=&quot;margin: 0px; padding: 0px; border: 0px; font-weight: 400; font-style: normal; font-family: &amp;quot;gg sans&amp;quot;, &amp;quot;Noto Sans&amp;quot;, &amp;quot;Helvetica Neue&amp;quot;, Helvetica, Arial, sans-serif; font-size: 16px; vertical-align: baseline; outline: 0px; font-variant-ligatures: normal; font-variant-caps: normal; letter-spacing: normal; orphans: 2; text-align: left; text-indent: 0px; text-transform: none; widows: 2; word-spacing: 0px; -webkit-text-stroke-width: 0px; background-color: rgba(2, 2, 2, 0.06); text-decoration-thickness: initial; text-decoration-style: initial; text-decoration-color: initial;&quot;&gt;O&lt;/span&gt;&lt;span style=&quot;margin: 0px; padding: 0px; border: 0px; font-weight: 400; font-style: normal; font-family: &amp;quot;gg sans&amp;quot;, &amp;quot;Noto Sans&amp;quot;, &amp;quot;Helvetica Neue&amp;quot;, Helvetica, Arial, sans-serif; font-size: 16px; vertical-align: baseline; outline: 0px; font-variant-ligatures: normal; font-variant-caps: normal; letter-spacing: normal; orphans: 2; text-align: left; text-indent: 0px; text-transform: none; widows: 2; word-spacing: 0px; -webkit-text-stroke-width: 0px; background-color: rgba(2, 2, 2, 0.06); text-decoration-thickness: initial; text-decoration-style: initial; text-decoration-color: initial;&quot;&gt;b&lt;/span&gt;&lt;span style=&quot;margin: 0px; padding: 0px; border: 0px; font-weight: 400; font-style: normal; font-family: &amp;quot;gg sans&amp;quot;, &amp;quot;Noto Sans&amp;quot;, &amp;quot;Helvetica Neue&amp;quot;, Helvetica, Arial, sans-serif; font-size: 16px; vertical-align: baseline; outline: 0px; font-variant-ligatures: normal; font-variant-caps: normal; letter-spacing: normal; orphans: 2; text-align: left; text-indent: 0px; text-transform: none; widows: 2; word-spacing: 0px; -webkit-text-stroke-width: 0px; background-color: rgba(2, 2, 2, 0.06); text-decoration-thickness: initial; text-decoration-style: initial; text-decoration-color: initial;&quot;&gt;i&lt;/span&gt;&lt;span style=&quot;margin: 0px; padding: 0px; border: 0px; font-weight: 400; font-style: normal; font-family: &amp;quot;gg sans&amp;quot;, &amp;quot;Noto Sans&amp;quot;, &amp;quot;Helvetica Neue&amp;quot;, Helvetica, Arial, sans-serif; font-size: 16px; vertical-align: baseline; outline: 0px; font-variant-ligatures: normal; font-variant-caps: normal; letter-spacing: normal; orphans: 2; text-align: left; text-indent: 0px; text-transform: none; widows: 2; word-spacing: 0px; -webkit-text-stroke-width: 0px; background-color: rgba(2, 2, 2, 0.06); text-decoration-thickness: initial; text-decoration-style: initial; text-decoration-color: initial;&quot;&gt;e&lt;/span&gt;&lt;span style=&quot;margin: 0px; padding: 0px; border: 0px; font-weight: 400; font-style: normal; font-family: &amp;quot;gg sans&amp;quot;, &amp;quot;Noto Sans&amp;quot;, &amp;quot;Helvetica Neue&amp;quot;, Helvetica, Arial, sans-serif; font-size: 16px; vertical-align: baseline; outline: 0px; font-variant-ligatures: normal; font-variant-caps: normal; letter-spacing: normal; orphans: 2; text-align: left; text-indent: 0px; text-transform: none; widows: 2; word-spacing: 0px; -webkit-text-stroke-width: 0px; background-color: rgba(2, 2, 2, 0.06); text-decoration-thickness: initial; text-decoration-style: initial; text-decoration-color: initial;&quot;&gt;t&lt;/span&gt;&lt;span style=&quot;margin: 0px; padding: 0px; border: 0px; font-weight: 400; font-style: normal; font-family: &amp;quot;gg sans&amp;quot;, &amp;quot;Noto Sans&amp;quot;, &amp;quot;Helvetica Neue&amp;quot;, Helvetica, Arial, sans-serif; font-size: 16px; vertical-align: baseline; outline: 0px; font-variant-ligatures: normal; font-variant-caps: normal; letter-spacing: normal; orphans: 2; text-align: left; text-indent: 0px; text-transform: none; widows: 2; word-spacing: 0px; -webkit-text-stroke-width: 0px; background-color: rgba(2, 2, 2, 0.06); text-decoration-thickness: initial; text-decoration-style: initial; text-decoration-color: initial;&quot;&gt;t&lt;/span&gt;&lt;span style=&quot;margin: 0px; padding: 0px; border: 0px; font-weight: 400; font-style: normal; font-family: &amp;quot;gg sans&amp;quot;, &amp;quot;Noto Sans&amp;quot;, &amp;quot;Helvetica Neue&amp;quot;, Helvetica, Arial, sans-serif; font-size: 16px; vertical-align: baseline; outline: 0px; font-variant-ligatures: normal; font-variant-caps: normal; letter-spacing: normal; orphans: 2; text-align: left; text-indent: 0px; text-transform: none; widows: 2; word-spacing: 0px; -webkit-text-stroke-width: 0px; background-color: rgba(2, 2, 2, 0.06); text-decoration-thickness: initial; text-decoration-style: initial; text-decoration-color: initial;&quot;&gt;i&lt;/span&gt;&lt;span style=&quot;margin: 0px; padding: 0px; border: 0px; font-weight: 400; font-style: normal; font-family: &amp;quot;gg sans&amp;quot;, &amp;quot;Noto Sans&amp;quot;, &amp;quot;Helvetica Neue&amp;quot;, Helvetica, Arial, sans-serif; font-size: 16px; vertical-align: baseline; outline: 0px; font-variant-ligatures: normal; font-variant-caps: normal; letter-spacing: normal; orphans: 2; text-align: left; text-indent: 0px; text-transform: none; widows: 2; word-spacing: 0px; -webkit-text-stroke-width: 0px; background-color: rgba(2, 2, 2, 0.06); text-decoration-thickness: initial; text-decoration-style: initial; text-decoration-color: initial;&quot;&gt;v&lt;/span&gt;&lt;span style=&quot;margin: 0px; padding: 0px; border: 0px; font-weight: 400; font-style: normal; font-family: &amp;quot;gg sans&amp;quot;, &amp;quot;Noto Sans&amp;quot;, &amp;quot;Helvetica Neue&amp;quot;, Helvetica, Arial, sans-serif; font-size: 16px; vertical-align: baseline; outline: 0px; font-variant-ligatures: normal; font-variant-caps: normal; letter-spacing: normal; orphans: 2; text-align: left; text-indent: 0px; text-transform: none; widows: 2; word-spacing: 0px; -webkit-text-stroke-width: 0px; background-color: rgba(2, 2, 2, 0.06); text-decoration-thickness: initial; text-decoration-style: initial; text-decoration-color: initial;&quot;&gt;o&lt;/span&gt;&lt;span style=&quot;margin: 0px; padding: 0px; border: 0px; font-weight: 400; font-style: normal; font-family: &amp;quot;gg sans&amp;quot;, &amp;quot;Noto Sans&amp;quot;, &amp;quot;Helvetica Neue&amp;quot;, Helvetica, Arial, sans-serif; font-size: 16px; vertical-align: baseline; outline: 0px; font-variant-ligatures: normal; font-variant-caps: normal; letter-spacing: normal; orphans: 2; text-align: left; text-indent: 0px; text-transform: none; widows: 2; word-spacing: 0px; -webkit-text-stroke-width: 0px; background-color: rgba(2, 2, 2, 0.06); text-decoration-thickness: initial; text-decoration-style: initial; text-decoration-color: initial;&quot;&gt;:leggere i dati dei libri contenuti &lt;br&gt;&lt;/span&gt;&lt;span style=&quot;margin: 0px; padding: 0px; border: 0px; font-weight: 400; font-style: normal; font-family: &amp;quot;gg sans&amp;quot;, &amp;quot;Noto Sans&amp;quot;, &amp;quot;Helvetica Neue&amp;quot;, Helvetica, Arial, sans-serif; font-size: 16px; vertical-align: baseline; outline: 0px; font-variant-ligatures: normal; font-variant-caps: normal; letter-spacing: normal; orphans: 2; text-align: left; text-indent: 0px; text-transform: none; widows: 2; word-spacing: 0px; -webkit-text-stroke-width: 0px; background-color: rgba(2, 2, 2, 0.06); text-decoration-thickness: initial; text-decoration-style: initial; text-decoration-color: initial;&quot;&gt;/&lt;/span&gt;&lt;span style=&quot;margin: 0px; padding: 0px; border: 0px; font-weight: 400; font-style: normal; font-family: &amp;quot;gg sans&amp;quot;, &amp;quot;Noto Sans&amp;quot;, &amp;quot;Helvetica Neue&amp;quot;, Helvetica, Arial, sans-serif; font-size: 16px; vertical-align: baseline; outline: 0px; font-variant-ligatures: normal; font-variant-caps: normal; letter-spacing: normal; orphans: 2; text-align: left; text-indent: 0px; text-transform: none; widows: 2; word-spacing: 0px; -webkit-text-stroke-width: 0px; background-color: rgba(2, 2, 2, 0.06); text-decoration-thickness: initial; text-decoration-style: initial; text-decoration-color: initial;&quot;&gt;/in un file di testo&lt;/span&gt;&lt;span style=&quot;margin: 0px; padding: 0px; border: 0px; font-weight: 400; font-style: normal; font-family: &amp;quot;gg sans&amp;quot;, &amp;quot;Noto Sans&amp;quot;, &amp;quot;Helvetica Neue&amp;quot;, Helvetica, Arial, sans-serif; font-size: 16px; vertical-align: baseline; outline: 0px; font-variant-ligatures: normal; font-variant-caps: normal; letter-spacing: normal; orphans: 2; text-align: left; text-indent: 0px; text-transform: none; widows: 2; word-spacing: 0px; -webkit-text-stroke-width: 0px; background-color: rgba(2, 2, 2, 0.06); text-decoration-thickness: initial; text-decoration-style: initial; text-decoration-color: initial;&quot;&gt;(id&lt;/span&gt;&lt;span style=&quot;margin: 0px; padding: 0px; border: 0px; font-weight: 400; font-style: normal; font-family: &amp;quot;gg sans&amp;quot;, &amp;quot;Noto Sans&amp;quot;, &amp;quot;Helvetica Neue&amp;quot;, Helvetica, Arial, sans-serif; font-size: 16px; vertical-align: baseline; outline: 0px; font-variant-ligatures: normal; font-variant-caps: normal; letter-spacing: normal; orphans: 2; text-align: left; text-indent: 0px; text-transform: none; widows: 2; word-spacing: 0px; -webkit-text-stroke-width: 0px; background-color: rgba(2, 2, 2, 0.06); text-decoration-thickness: initial; text-decoration-style: initial; text-decoration-color: initial;&quot;&gt;, nome e autore&lt;/span&gt;&lt;span style=&quot;margin: 0px; padding: 0px; border: 0px; font-weight: 400; font-style: normal; font-family: &amp;quot;gg sans&amp;quot;, &amp;quot;Noto Sans&amp;quot;, &amp;quot;Helvetica Neue&amp;quot;, Helvetica, Arial, sans-serif; font-size: 16px; vertical-align: baseline; outline: 0px; font-variant-ligatures: normal; font-variant-caps: normal; letter-spacing: normal; orphans: 2; text-align: left; text-indent: 0px; text-transform: none; widows: 2; word-spacing: 0px; -webkit-text-stroke-width: 0px; background-color: rgba(2, 2, 2, 0.06); text-decoration-thickness: initial; text-decoration-style: initial; text-decoration-color: initial;&quot;&gt;) separati da virgola&lt;br&gt;&lt;/span&gt;&lt;span style=&quot;margin: 0px; padding: 0px; border: 0px; font-weight: 400; font-style: normal; font-family: &amp;quot;gg sans&amp;quot;, &amp;quot;Noto Sans&amp;quot;, &amp;quot;Helvetica Neue&amp;quot;, Helvetica, Arial, sans-serif; font-size: 16px; vertical-align: baseline; outline: 0px; font-variant-ligatures: normal; font-variant-caps: normal; letter-spacing: normal; orphans: 2; text-align: left; text-indent: 0px; text-transform: none; widows: 2; word-spacing: 0px; -webkit-text-stroke-width: 0px; background-color: rgba(2, 2, 2, 0.06); text-decoration-thickness: initial; text-decoration-style: initial; text-decoration-color: initial;&quot;&gt;/&lt;/span&gt;&lt;span style=&quot;margin: 0px; padding: 0px; border: 0px; font-weight: 400; font-style: normal; font-family: &amp;quot;gg sans&amp;quot;, &amp;quot;Noto Sans&amp;quot;, &amp;quot;Helvetica Neue&amp;quot;, Helvetica, Arial, sans-serif; font-size: 16px; vertical-align: baseline; outline: 0px; font-variant-ligatures: normal; font-variant-caps: normal; letter-spacing: normal; orphans: 2; text-align: left; text-indent: 0px; text-transform: none; widows: 2; word-spacing: 0px; -webkit-text-stroke-width: 0px; background-color: rgba(2, 2, 2, 0.06); text-decoration-thickness: initial; text-decoration-style: initial; text-decoration-color: initial;&quot;&gt;/salvare i dati in un hashmap&lt;/span&gt;&lt;span style=&quot;margin: 0px; padding: 0px; border: 0px; font-weight: 400; font-style: normal; font-family: &amp;quot;gg sans&amp;quot;, &amp;quot;Noto Sans&amp;quot;, &amp;quot;Helvetica Neue&amp;quot;, Helvetica, Arial, sans-serif; font-size: 16px; vertical-align: baseline; outline: 0px; font-variant-ligatures: normal; font-variant-caps: normal; letter-spacing: normal; orphans: 2; text-align: left; text-indent: 0px; text-transform: none; widows: 2; word-spacing: 0px; -webkit-text-stroke-width: 0px; background-color: rgba(2, 2, 2, 0.06); text-decoration-thickness: initial; text-decoration-style: initial; text-decoration-color: initial;&quot;&gt;(ID sarÃ  chiave e dovrete &lt;br&gt;&lt;/span&gt;&lt;span style=&quot;margin: 0px; padding: 0px; border: 0px; font-weight: 400; font-style: normal; font-family: &amp;quot;gg sans&amp;quot;, &amp;quot;Noto Sans&amp;quot;, &amp;quot;Helvetica Neue&amp;quot;, Helvetica, Arial, sans-serif; font-size: 16px; vertical-align: baseline; outline: 0px; font-variant-ligatures: normal; font-variant-caps: normal; letter-spacing: normal; orphans: 2; text-align: left; text-indent: 0px; text-transform: none; widows: 2; word-spacing: 0px; -webkit-text-stroke-width: 0px; background-color: rgba(2, 2, 2, 0.06); text-decoration-thickness: initial; text-decoration-style: initial; text-decoration-color: initial;&quot;&gt;/&lt;/span&gt;&lt;span style=&quot;margin: 0px; padding: 0px; border: 0px; font-weight: 400; font-style: normal; font-family: &amp;quot;gg sans&amp;quot;, &amp;quot;Noto Sans&amp;quot;, &amp;quot;Helvetica Neue&amp;quot;, Helvetica, Arial, sans-serif; font-size: 16px; vertical-align: baseline; outline: 0px; font-variant-ligatures: normal; font-variant-caps: normal; letter-spacing: normal; orphans: 2; text-align: left; text-indent: 0px; text-transform: none; widows: 2; word-spacing: 0px; -webkit-text-stroke-width: 0px; background-color: rgba(2, 2, 2, 0.06); text-decoration-thickness: initial; text-decoration-style: initial; text-decoration-color: initial;&quot;&gt;/creare un oggetto book che sarÃ  il valore&lt;/span&gt;&lt;span style=&quot;margin: 0px; padding: 0px; border: 0px; font-weight: 400; font-style: normal; font-family: &amp;quot;gg sans&amp;quot;, &amp;quot;Noto Sans&amp;quot;, &amp;quot;Helvetica Neue&amp;quot;, Helvetica, Arial, sans-serif; font-size: 16px; vertical-align: baseline; outline: 0px; font-variant-ligatures: normal; font-variant-caps: normal; letter-spacing: normal; orphans: 2; text-align: left; text-indent: 0px; text-transform: none; widows: 2; word-spacing: 0px; -webkit-text-stroke-width: 0px; background-color: rgba(2, 2, 2, 0.06); text-decoration-thickness: initial; text-decoration-style: initial; text-decoration-color: initial;&quot;&gt;)&lt;br&gt;&lt;/span&gt;&lt;span style=&quot;margin: 0px; padding: 0px; border: 0px; font-weight: 400; font-style: normal; font-family: &amp;quot;gg sans&amp;quot;, &amp;quot;Noto Sans&amp;quot;, &amp;quot;Helvetica Neue&amp;quot;, Helvetica, Arial, sans-serif; font-size: 16px; vertical-align: baseline; outline: 0px; font-variant-ligatures: normal; font-variant-caps: normal; letter-spacing: normal; orphans: 2; text-align: left; text-indent: 0px; text-transform: none; widows: 2; word-spacing: 0px; -webkit-text-stroke-width: 0px; background-color: rgba(2, 2, 2, 0.06); text-decoration-thickness: initial; text-decoration-style: initial; text-decoration-color: initial;&quot;&gt;/&lt;/span&gt;&lt;span style=&quot;margin: 0px; padding: 0px; border: 0px; font-weight: 400; font-style: normal; font-family: &amp;quot;gg sans&amp;quot;, &amp;quot;Noto Sans&amp;quot;, &amp;quot;Helvetica Neue&amp;quot;, Helvetica, Arial, sans-serif; font-size: 16px; vertical-align: baseline; outline: 0px; font-variant-ligatures: normal; font-variant-caps: normal; letter-spacing: normal; orphans: 2; text-align: left; text-indent: 0px; text-transform: none; widows: 2; word-spacing: 0px; -webkit-text-stroke-width: 0px; background-color: rgba(2, 2, 2, 0.06); text-decoration-thickness: initial; text-decoration-style: initial; text-decoration-color: initial;&quot;&gt;/implementare metodi per aggiunger e rimuovere i libri dal file e dall&lt;/span&gt;&lt;span style=&quot;margin: 0px; padding: 0px; border: 0px; font-weight: 400; font-style: normal; font-family: &amp;quot;gg sans&amp;quot;, &amp;quot;Noto Sans&amp;quot;, &amp;quot;Helvetica Neue&amp;quot;, Helvetica, Arial, sans-serif; font-size: 16px; vertical-align: baseline; outline: 0px; font-variant-ligatures: normal; font-variant-caps: normal; letter-spacing: normal; orphans: 2; text-align: left; text-indent: 0px; text-transform: none; widows: 2; word-spacing: 0px; -webkit-text-stroke-width: 0px; background-color: rgba(2, 2, 2, 0.06); text-decoration-thickness: initial; text-decoration-style: initial; text-decoration-color: initial;&quot;&gt;&#39;hashmap&lt;br&gt;&lt;/span&gt;&lt;span style=&quot;margin: 0px; padding: 0px; border: 0px; font-weight: 400; font-style: normal; font-family: &amp;quot;gg sans&amp;quot;, &amp;quot;Noto Sans&amp;quot;, &amp;quot;Helvetica Neue&amp;quot;, Helvetica, Arial, sans-serif; font-size: 16px; vertical-align: baseline; outline: 0px; font-variant-ligatures: normal; font-variant-caps: normal; letter-spacing: normal; orphans: 2; text-align: left; text-indent: 0px; text-transform: none; widows: 2; word-spacing: 0px; -webkit-text-stroke-width: 0px; background-color: rgba(2, 2, 2, 0.06); text-decoration-thickness: initial; text-decoration-style: initial; text-decoration-color: initial;&quot;&gt;/&lt;/span&gt;&lt;span style=&quot;margin: 0px; padding: 0px; border: 0px; font-weight: 400; font-style: normal; font-family: &amp;quot;gg sans&amp;quot;, &amp;quot;Noto Sans&amp;quot;, &amp;quot;Helvetica Neue&amp;quot;, Helvetica, Arial, sans-serif; font-size: 16px; vertical-align: baseline; outline: 0px; font-variant-ligatures: normal; font-variant-caps: normal; letter-spacing: normal; orphans: 2; text-align: left; text-indent: 0px; text-transform: none; widows: 2; word-spacing: 0px; -webkit-text-stroke-width: 0px; background-color: rgba(2, 2, 2, 0.06); text-decoration-thickness: initial; text-decoration-style: initial; text-decoration-color: initial;&quot;&gt;/quindi al termine di ogni modifica bisognerÃ &lt;br&gt;&lt;/span&gt;&lt;span style=&quot;margin: 0px; padding: 0px; border: 0px; font-weight: 400; font-style: normal; font-family: &amp;quot;gg sans&amp;quot;, &amp;quot;Noto Sans&amp;quot;, &amp;quot;Helvetica Neue&amp;quot;, Helvetica, Arial, sans-serif; font-size: 16px; vertical-align: baseline; outline: 0px; font-variant-ligatures: normal; font-variant-caps: normal; letter-spacing: normal; orphans: 2; text-align: left; text-indent: 0px; text-transform: none; widows: 2; word-spacing: 0px; -webkit-text-stroke-width: 0px; background-color: rgba(2, 2, 2, 0.06); text-decoration-thickness: initial; text-decoration-style: initial; text-decoration-color: initial;&quot;&gt;/&lt;/span&gt;&lt;span style=&quot;margin: 0px; padding: 0px; border: 0px; font-weight: 400; font-style: normal; font-family: &amp;quot;gg sans&amp;quot;, &amp;quot;Noto Sans&amp;quot;, &amp;quot;Helvetica Neue&amp;quot;, Helvetica, Arial, sans-serif; font-size: 16px; vertical-align: baseline; outline: 0px; font-variant-ligatures: normal; font-variant-caps: normal; letter-spacing: normal; orphans: 2; text-align: left; text-indent: 0px; text-transform: none; widows: 2; word-spacing: 0px; -webkit-text-stroke-width: 0px; background-color: rgba(2, 2, 2, 0.06); text-decoration-thickness: initial; text-decoration-style: initial; text-decoration-color: initial;&quot;&gt;/modificare il file di testo con i nuovi dati&lt;br&gt;&lt;/span&gt;&lt;span style=&quot;margin: 0px; padding: 0px; border: 0px; font-weight: 400; font-style: normal; font-family: &amp;quot;gg sans&amp;quot;, &amp;quot;Noto Sans&amp;quot;, &amp;quot;Helvetica Neue&amp;quot;, Helvetica, Arial, sans-serif; font-size: 16px; vertical-align: baseline; outline: 0px; font-variant-ligatures: normal; font-variant-caps: normal; letter-spacing: normal; orphans: 2; text-align: left; text-indent: 0px; text-transform: none; widows: 2; word-spacing: 0px; -webkit-text-stroke-width: 0px; background-color: rgba(2, 2, 2, 0.06); text-decoration-thickness: initial; text-decoration-style: initial; text-decoration-color: initial;&quot;&gt;/&lt;/span&gt;&lt;span style=&quot;margin: 0px; padding: 0px; border: 0px; font-weight: 400; font-style: normal; font-family: &amp;quot;gg sans&amp;quot;, &amp;quot;Noto Sans&amp;quot;, &amp;quot;Helvetica Neue&amp;quot;, Helvetica, Arial, sans-serif; font-size: 16px; vertical-align: baseline; outline: 0px; font-variant-ligatures: normal; font-variant-caps: normal; letter-spacing: normal; orphans: 2; text-align: left; text-indent: 0px; text-transform: none; widows: 2; word-spacing: 0px; -webkit-text-stroke-width: 0px; background-color: rgba(2, 2, 2, 0.06); text-decoration-thickness: initial; text-decoration-style: initial; text-decoration-color: initial;&quot;&gt;/quindi sono da implementare la classe Book&lt;/span&gt;&lt;span style=&quot;margin: 0px; padding: 0px; border: 0px; font-weight: 400; font-style: normal; font-family: &amp;quot;gg sans&amp;quot;, &amp;quot;Noto Sans&amp;quot;, &amp;quot;Helvetica Neue&amp;quot;, Helvetica, Arial, sans-serif; font-size: 16px; vertical-align: baseline; outline: 0px; font-variant-ligatures: normal; font-variant-caps: normal; letter-spacing: normal; orphans: 2; text-align: left; text-indent: 0px; text-transform: none; widows: 2; word-spacing: 0px; -webkit-text-stroke-width: 0px; background-color: rgba(2, 2, 2, 0.06); text-decoration-thickness: initial; text-decoration-style: initial; text-decoration-color: initial;&quot;&gt;, la classe Biblioteca &lt;br&gt;&lt;/span&gt;&lt;span style=&quot;margin: 0px; padding: 0px; border: 0px; font-weight: 400; font-style: normal; font-family: &amp;quot;gg sans&amp;quot;, &amp;quot;Noto Sans&amp;quot;, &amp;quot;Helvetica Neue&amp;quot;, Helvetica, Arial, sans-serif; font-size: 16px; vertical-align: baseline; outline: 0px; font-variant-ligatures: normal; font-variant-caps: normal; letter-spacing: normal; orphans: 2; text-align: left; text-indent: 0px; text-transform: none; widows: 2; word-spacing: 0px; -webkit-text-stroke-width: 0px; background-color: rgba(2, 2, 2, 0.06); text-decoration-thickness: initial; text-decoration-style: initial; text-decoration-color: initial;&quot;&gt;/&lt;/span&gt;&lt;span style=&quot;margin: 0px; padding: 0px; border: 0px; font-weight: 400; font-style: normal; font-family: &amp;quot;gg sans&amp;quot;, &amp;quot;Noto Sans&amp;quot;, &amp;quot;Helvetica Neue&amp;quot;, Helvetica, Arial, sans-serif; font-size: 16px; vertical-align: baseline; outline: 0px; font-variant-ligatures: normal; font-variant-caps: normal; letter-spacing: normal; orphans: 2; text-align: left; text-indent: 0px; text-transform: none; widows: 2; word-spacing: 0px; -webkit-text-stroke-width: 0px; background-color: rgba(2, 2, 2, 0.06); text-decoration-thickness: initial; text-decoration-style: initial; text-decoration-color: initial;&quot;&gt;/e il main che gestisce le operazioni&lt;br&gt;/&lt;span style=&quot;margin: 0px; padding: 0px; border: 0px; vertical-align: baseline; outline: 0px;&quot;&gt;/partendo dalla libreria implementatemi un&lt;/span&gt;&lt;span style=&quot;margin: 0px; padding: 0px; border: 0px; vertical-align: baseline; outline: 0px;&quot;&gt;&#39;estensione della classe libro che la chiamerete &lt;br/&gt;&lt;/span&gt;&lt;span style=&quot;margin: 0px; padding: 0px; border: 0px; vertical-align: baseline; outline: 0px;&quot;&gt;/&lt;/span&gt;&lt;span style=&quot;margin: 0px; padding: 0px; border: 0px; vertical-align: baseline; outline: 0px;&quot;&gt;/audioLibro che ha come attributo aggiuntivo durataMinuti&lt;/span&gt;&lt;span style=&quot;margin: 0px; padding: 0px; border: 0px; vertical-align: baseline; outline: 0px;&quot;&gt;;&lt;br/&gt;&lt;/span&gt;&lt;span style=&quot;margin: 0px; padding: 0px; border: 0px; vertical-align: baseline; outline: 0px;&quot;&gt;/&lt;/span&gt;&lt;span style=&quot;margin: 0px; padding: 0px; border: 0px; vertical-align: baseline; outline: 0px;&quot;&gt;/modificate poi la classe libreria per predisporla&lt;br/&gt;&lt;/span&gt;&lt;span style=&quot;margin: 0px; padding: 0px; border: 0px; vertical-align: baseline; outline: 0px;&quot;&gt;/&lt;/span&gt;&lt;span style=&quot;margin: 0px; padding: 0px; border: 0px; vertical-align: baseline; outline: 0px;&quot;&gt;/a salvare nel file di testo e nell&lt;/span&gt;&lt;span style=&quot;margin: 0px; padding: 0px; border: 0px; vertical-align: baseline; outline: 0px;&quot;&gt;&#39;hashmap sia libri che audiolibri&lt;/span&gt;&lt;br&gt;&lt;/span&gt;" style="text;whiteSpace=wrap;html=1;" vertex="1" parent="1">
          <mxGeometry x="130" y="20" width="560" height="250" as="geometry" />
        </mxCell>
        <mxCell id="4IaKtnTtu1cA-8xoIhlD-3" value="" style="endArrow=classic;html=1;rounded=0;exitX=0.5;exitY=1;exitDx=0;exitDy=0;" edge="1" parent="1" source="4IaKtnTtu1cA-8xoIhlD-1">
          <mxGeometry width="50" height="50" relative="1" as="geometry">
            <mxPoint x="560" y="630" as="sourcePoint" />
            <mxPoint x="190" y="520" as="targetPoint" />
          </mxGeometry>
        </mxCell>
        <mxCell id="4IaKtnTtu1cA-8xoIhlD-6" value="&lt;b&gt;PRINTLN DATI&lt;/b&gt;" style="rounded=0;whiteSpace=wrap;html=1;" vertex="1" parent="1">
          <mxGeometry x="109.75" y="660" width="165" height="70" as="geometry" />
        </mxCell>
        <mxCell id="4IaKtnTtu1cA-8xoIhlD-7" value="" style="endArrow=classic;html=1;rounded=0;exitX=0.5;exitY=1;exitDx=0;exitDy=0;" edge="1" parent="1">
          <mxGeometry width="50" height="50" relative="1" as="geometry">
            <mxPoint x="189.88" y="590" as="sourcePoint" />
            <mxPoint x="188.46000000000004" y="660" as="targetPoint" />
          </mxGeometry>
        </mxCell>
        <mxCell id="4IaKtnTtu1cA-8xoIhlD-8" value="&lt;b&gt;DATI FILE&lt;/b&gt;" style="shape=parallelogram;perimeter=parallelogramPerimeter;whiteSpace=wrap;html=1;fixedSize=1;" vertex="1" parent="1">
          <mxGeometry x="112" y="520" width="160.5" height="70" as="geometry" />
        </mxCell>
        <mxCell id="4IaKtnTtu1cA-8xoIhlD-9" value="" style="endArrow=classic;html=1;rounded=0;exitX=0.5;exitY=1;exitDx=0;exitDy=0;" edge="1" parent="1">
          <mxGeometry width="50" height="50" relative="1" as="geometry">
            <mxPoint x="189.38" y="730" as="sourcePoint" />
            <mxPoint x="189.38" y="790" as="targetPoint" />
          </mxGeometry>
        </mxCell>
        <mxCell id="4IaKtnTtu1cA-8xoIhlD-10" value="CARICA LIBRO" style="rounded=0;whiteSpace=wrap;html=1;" vertex="1" parent="1">
          <mxGeometry x="107.5" y="790" width="165" height="70" as="geometry" />
        </mxCell>
        <mxCell id="4IaKtnTtu1cA-8xoIhlD-11" value="" style="endArrow=classic;html=1;rounded=0;exitX=0.5;exitY=1;exitDx=0;exitDy=0;" edge="1" parent="1">
          <mxGeometry width="50" height="50" relative="1" as="geometry">
            <mxPoint x="189.88" y="860" as="sourcePoint" />
            <mxPoint x="188.46000000000004" y="930" as="targetPoint" />
          </mxGeometry>
        </mxCell>
      </root>
    </mxGraphModel>
  </diagram>
</mxfile>
